<?xml version="1.0" encoding="UTF-8" standalone="no"?>
<svg
   width="57"
   height="33"
   viewBox="0 0 55 36"
   version="1.1"
   xmlns="http://www.w3.org/2000/svg">
  <g
     style="fill:#212121"
     transform="translate(4,-6.952508)">
    <path
       d="M 13.750134,8.4121203 38.167189,21.116929 c 1.592276,0.828502 2.211438,2.790929 1.382936,4.383205 -0.308051,0.592037 -0.790899,1.074885 -1.382936,1.382937 L 13.750134,39.58788 C 12.157858,40.416381 10.195431,39.797219 9.3669293,38.204943 9.125863,37.741644 9,37.227072 9,36.704809 V 11.295191 c 0,-1.7949254 1.455075,-3.25 3.25,-3.25 0.447654,0 0.889658,0.092471 1.298566,0.2706995 z m -1.153949,2.2177467 -0.110487,-0.04668 c -0.07579,-0.02509 -0.15535,-0.038 -0.235698,-0.038 -0.414214,0 -0.75,0.335786 -0.75,0.75 v 25.409618 c 0,0.120522 0.02904,0.23927 0.08468,0.346185 0.191193,0.367448 0.644061,0.510332 1.011509,0.319139 L 37.01324,24.665324 c 0.136624,-0.07109 0.24805,-0.182515 0.319139,-0.319139 0.191192,-0.367449 0.04831,-0.820316 -0.319139,-1.011509 z"/>
  </g>
</svg>